<mxfile host="app.diagrams.net" modified="2024-02-22T00:10:21.849Z" agent="Mozilla/5.0 (Windows NT 10.0; Win64; x64) AppleWebKit/537.36 (KHTML, like Gecko) Chrome/120.0.0.0 Safari/537.36 OPR/106.0.0.0" etag="KZOS1K5r2mgYE7Fr4cSa" version="23.1.5" type="github">
  <diagram id="C5RBs43oDa-KdzZeNtuy" name="Page-1">
    <mxGraphModel dx="1009" dy="542" grid="1" gridSize="10" guides="1" tooltips="1" connect="1" arrows="1" fold="1" page="1" pageScale="1" pageWidth="827" pageHeight="1169" math="0" shadow="0">
      <root>
        <mxCell id="WIyWlLk6GJQsqaUBKTNV-0" />
        <mxCell id="WIyWlLk6GJQsqaUBKTNV-1" parent="WIyWlLk6GJQsqaUBKTNV-0" />
        <mxCell id="IxOwOTNks9VKTnpu3G1j-0" value="Actor" style="shape=umlActor;verticalLabelPosition=bottom;verticalAlign=top;html=1;outlineConnect=0;" vertex="1" parent="WIyWlLk6GJQsqaUBKTNV-1">
          <mxGeometry x="30" y="660.52" width="50" height="100" as="geometry" />
        </mxCell>
        <mxCell id="IxOwOTNks9VKTnpu3G1j-6" value="" style="rounded=0;whiteSpace=wrap;html=1;rotation=90;" vertex="1" parent="WIyWlLk6GJQsqaUBKTNV-1">
          <mxGeometry x="-94.87" y="459.15" width="980" height="502.73" as="geometry" />
        </mxCell>
        <mxCell id="IxOwOTNks9VKTnpu3G1j-8" value="FAZER LOGIN(FUNCIONÁRIO)" style="ellipse;whiteSpace=wrap;html=1;" vertex="1" parent="WIyWlLk6GJQsqaUBKTNV-1">
          <mxGeometry x="170" y="290" width="140" height="70" as="geometry" />
        </mxCell>
        <mxCell id="IxOwOTNks9VKTnpu3G1j-12" value="" style="endArrow=classic;html=1;rounded=0;entryX=0;entryY=0.5;entryDx=0;entryDy=0;exitX=1;exitY=0.3333333333333333;exitDx=0;exitDy=0;exitPerimeter=0;" edge="1" parent="WIyWlLk6GJQsqaUBKTNV-1" source="IxOwOTNks9VKTnpu3G1j-0" target="IxOwOTNks9VKTnpu3G1j-8">
          <mxGeometry width="50" height="50" relative="1" as="geometry">
            <mxPoint x="100" y="570" as="sourcePoint" />
            <mxPoint x="150" y="520" as="targetPoint" />
          </mxGeometry>
        </mxCell>
        <mxCell id="IxOwOTNks9VKTnpu3G1j-14" value="VERIFICAR SENHA" style="ellipse;whiteSpace=wrap;html=1;" vertex="1" parent="WIyWlLk6GJQsqaUBKTNV-1">
          <mxGeometry x="410" y="250" width="110" height="60" as="geometry" />
        </mxCell>
        <mxCell id="IxOwOTNks9VKTnpu3G1j-15" value="EXIBIR ERRO LOGIN" style="ellipse;whiteSpace=wrap;html=1;" vertex="1" parent="WIyWlLk6GJQsqaUBKTNV-1">
          <mxGeometry x="414" y="330" width="106" height="60" as="geometry" />
        </mxCell>
        <mxCell id="IxOwOTNks9VKTnpu3G1j-16" value="" style="endArrow=none;dashed=1;html=1;dashPattern=1 3;strokeWidth=2;rounded=0;exitX=1;exitY=0.5;exitDx=0;exitDy=0;" edge="1" parent="WIyWlLk6GJQsqaUBKTNV-1" source="IxOwOTNks9VKTnpu3G1j-8">
          <mxGeometry width="50" height="50" relative="1" as="geometry">
            <mxPoint x="360" y="330" as="sourcePoint" />
            <mxPoint x="410" y="280" as="targetPoint" />
          </mxGeometry>
        </mxCell>
        <mxCell id="IxOwOTNks9VKTnpu3G1j-19" value="" style="endArrow=none;dashed=1;html=1;dashPattern=1 3;strokeWidth=2;rounded=0;exitX=0.986;exitY=0.552;exitDx=0;exitDy=0;entryX=0.022;entryY=0.651;entryDx=0;entryDy=0;entryPerimeter=0;exitPerimeter=0;" edge="1" parent="WIyWlLk6GJQsqaUBKTNV-1" source="IxOwOTNks9VKTnpu3G1j-8" target="IxOwOTNks9VKTnpu3G1j-15">
          <mxGeometry width="50" height="50" relative="1" as="geometry">
            <mxPoint x="318" y="338" as="sourcePoint" />
            <mxPoint x="420" y="290" as="targetPoint" />
          </mxGeometry>
        </mxCell>
        <mxCell id="IxOwOTNks9VKTnpu3G1j-32" value="&lt;div&gt;&lt;br/&gt;&lt;/div&gt;" style="text;html=1;align=center;verticalAlign=middle;resizable=0;points=[];autosize=1;strokeColor=none;fillColor=none;" vertex="1" parent="WIyWlLk6GJQsqaUBKTNV-1">
          <mxGeometry x="394" y="311.42" width="20" height="30" as="geometry" />
        </mxCell>
        <mxCell id="IxOwOTNks9VKTnpu3G1j-34" value="" style="shape=stencil(fZbdcgIhDIWfZm8zQAg/17Z9j85U606tdqz9e/tmZ0c0uJ47xP0I5JwEBl59bp8/1kNwn6fj4W39M76ctgM/DCGM++36OJ50NPDjwKvN4bh+PR6+9i/z74/n6ctp9H74nlb4nbmSKZeJCu5vngmZ6jzzNAO7cX8FVKEsBuBKrgKg9oAE8gkCbLeUhEoEQKSUDZDLeWYRKIl8MEDRmHwfyBrBG6Amyu4+kDxxMoB3jhwgYu7TVAsVkFcWCs4CTBEoF4RctKeOxHIf8IXYpikHikAIf+MNUW94AGSSaoAoFIE3AlOyeWU+p2E5S9yfQZcQILVuQOwZdJNoS9Ls3wA5u2XZTIHECqeJ9kDpSaauRiNVcAY1QhdBzeLBli5WazpkSsBLV25uRaqWRyFawTQzRRIQYirJzq5atkBqLfouwqUxLBepthWb10vrWZY6UOAeyKCCtDV625mm9gmUC4Wc3VLJMMIE1BsA2FW9JraVlQB7n3c9oMKhCLEvIM1zBPZ25/umNQ1tVEC2G+fFCC8g398O2hNQuQlVu752DBfA+q0ptnqO5JFmeuIuo9DY7KjY71UxdJV4EntifPWorW++R/dC4t7V3DlIB5cHx2bc7eb3yvX//QNFp+bHDT/+Aw==);lineShape=1;strokeColor=default;" vertex="1" parent="WIyWlLk6GJQsqaUBKTNV-1">
          <mxGeometry x="585.7421922772298" y="171.63925471465234" width="5.191710857906047" height="5.183595795952998" as="geometry" />
        </mxCell>
        <mxCell id="IxOwOTNks9VKTnpu3G1j-35" value="INCLUIR" style="text;html=1;align=center;verticalAlign=middle;whiteSpace=wrap;rounded=0;rotation=-25;" vertex="1" parent="WIyWlLk6GJQsqaUBKTNV-1">
          <mxGeometry x="327" y="278" width="60" height="30" as="geometry" />
        </mxCell>
        <mxCell id="IxOwOTNks9VKTnpu3G1j-36" value="EXTENSÃO&lt;div&gt;&lt;br/&gt;&lt;/div&gt;" style="text;html=1;align=center;verticalAlign=middle;whiteSpace=wrap;rounded=0;rotation=20;" vertex="1" parent="WIyWlLk6GJQsqaUBKTNV-1">
          <mxGeometry x="340" y="334" width="60" height="30" as="geometry" />
        </mxCell>
        <mxCell id="IxOwOTNks9VKTnpu3G1j-38" value="ADICIONAR ITEM" style="ellipse;whiteSpace=wrap;html=1;" vertex="1" parent="WIyWlLk6GJQsqaUBKTNV-1">
          <mxGeometry x="165" y="430" width="140" height="50" as="geometry" />
        </mxCell>
        <mxCell id="IxOwOTNks9VKTnpu3G1j-39" value="ADICIONAR CLIENTE" style="ellipse;whiteSpace=wrap;html=1;" vertex="1" parent="WIyWlLk6GJQsqaUBKTNV-1">
          <mxGeometry x="164" y="523" width="140" height="50" as="geometry" />
        </mxCell>
        <mxCell id="IxOwOTNks9VKTnpu3G1j-40" value="REMOVER ITEM" style="ellipse;whiteSpace=wrap;html=1;" vertex="1" parent="WIyWlLk6GJQsqaUBKTNV-1">
          <mxGeometry x="170" y="1030" width="140" height="50" as="geometry" />
        </mxCell>
        <mxCell id="IxOwOTNks9VKTnpu3G1j-41" value="REMOVER CLIENTE" style="ellipse;whiteSpace=wrap;html=1;" vertex="1" parent="WIyWlLk6GJQsqaUBKTNV-1">
          <mxGeometry x="170" y="1100" width="140" height="50" as="geometry" />
        </mxCell>
        <mxCell id="IxOwOTNks9VKTnpu3G1j-42" value="CONSULTAR ACERVO" style="ellipse;whiteSpace=wrap;html=1;" vertex="1" parent="WIyWlLk6GJQsqaUBKTNV-1">
          <mxGeometry x="172" y="848" width="140" height="50" as="geometry" />
        </mxCell>
        <mxCell id="IxOwOTNks9VKTnpu3G1j-43" value="CONSULTAR HISTÓRICO" style="ellipse;whiteSpace=wrap;html=1;" vertex="1" parent="WIyWlLk6GJQsqaUBKTNV-1">
          <mxGeometry x="170" y="950" width="140" height="50" as="geometry" />
        </mxCell>
        <mxCell id="IxOwOTNks9VKTnpu3G1j-44" value="LISTA DE CLIENTES" style="ellipse;whiteSpace=wrap;html=1;" vertex="1" parent="WIyWlLk6GJQsqaUBKTNV-1">
          <mxGeometry x="166" y="607" width="145" height="50" as="geometry" />
        </mxCell>
        <mxCell id="IxOwOTNks9VKTnpu3G1j-46" value="EMPRESTAR ITEM" style="ellipse;whiteSpace=wrap;html=1;" vertex="1" parent="WIyWlLk6GJQsqaUBKTNV-1">
          <mxGeometry x="166.5" y="688" width="145" height="50" as="geometry" />
        </mxCell>
        <mxCell id="IxOwOTNks9VKTnpu3G1j-47" value="DEVOLVER ITEM" style="ellipse;whiteSpace=wrap;html=1;" vertex="1" parent="WIyWlLk6GJQsqaUBKTNV-1">
          <mxGeometry x="167" y="768" width="145" height="50" as="geometry" />
        </mxCell>
        <mxCell id="IxOwOTNks9VKTnpu3G1j-48" value="EXIBIR OPÇÃO DE LIVRO OU ITEM" style="ellipse;whiteSpace=wrap;html=1;" vertex="1" parent="WIyWlLk6GJQsqaUBKTNV-1">
          <mxGeometry x="406" y="405" width="124" height="45" as="geometry" />
        </mxCell>
        <mxCell id="IxOwOTNks9VKTnpu3G1j-49" value="" style="endArrow=none;dashed=1;html=1;dashPattern=1 3;strokeWidth=2;rounded=0;exitX=1;exitY=0.5;exitDx=0;exitDy=0;" edge="1" parent="WIyWlLk6GJQsqaUBKTNV-1" source="IxOwOTNks9VKTnpu3G1j-38">
          <mxGeometry width="50" height="50" relative="1" as="geometry">
            <mxPoint x="306" y="480" as="sourcePoint" />
            <mxPoint x="406" y="435" as="targetPoint" />
          </mxGeometry>
        </mxCell>
        <mxCell id="IxOwOTNks9VKTnpu3G1j-50" value="INCLUIR" style="text;html=1;align=center;verticalAlign=middle;whiteSpace=wrap;rounded=0;rotation=-15;" vertex="1" parent="WIyWlLk6GJQsqaUBKTNV-1">
          <mxGeometry x="320" y="420" width="60" height="30" as="geometry" />
        </mxCell>
        <mxCell id="IxOwOTNks9VKTnpu3G1j-53" value="BANCO DE DADOS&lt;br&gt;REAGE" style="shape=umlActor;verticalLabelPosition=bottom;verticalAlign=top;html=1;outlineConnect=0;" vertex="1" parent="WIyWlLk6GJQsqaUBKTNV-1">
          <mxGeometry x="711" y="663" width="50" height="100" as="geometry" />
        </mxCell>
        <mxCell id="IxOwOTNks9VKTnpu3G1j-54" value="" style="endArrow=classic;html=1;rounded=0;entryX=1;entryY=1;entryDx=0;entryDy=0;exitX=0;exitY=0.3333333333333333;exitDx=0;exitDy=0;exitPerimeter=0;" edge="1" parent="WIyWlLk6GJQsqaUBKTNV-1" source="IxOwOTNks9VKTnpu3G1j-53" target="IxOwOTNks9VKTnpu3G1j-8">
          <mxGeometry width="50" height="50" relative="1" as="geometry">
            <mxPoint x="90" y="704" as="sourcePoint" />
            <mxPoint x="180" y="335" as="targetPoint" />
          </mxGeometry>
        </mxCell>
      </root>
    </mxGraphModel>
  </diagram>
</mxfile>
